<?xml version="1.0" encoding="utf-8"?>
<!-- Generator: Adobe Illustrator 17.0.0, SVG Export Plug-In . SVG Version: 6.00 Build 0)  -->
<!DOCTYPE svg PUBLIC "-//W3C//DTD SVG 1.1//EN" "http://www.w3.org/Graphics/SVG/1.1/DTD/svg11.dtd">
<svg version="1.1" id="Camada_1" xmlns="http://www.w3.org/2000/svg" xmlns:xlink="http://www.w3.org/1999/xlink" x="0px" y="0px"
	 width="1000px" height="1000px" viewBox="0 0 1000 1000" enable-background="new 0 0 1000 1000" xml:space="preserve">
<g>
	<path fill="#FFFFFF" d="M238.37,706.807c6.716,3.82,12.618,7.141,18.487,10.521c58.802,33.86,117.627,67.681,176.338,101.698
		c4.283,2.482,7.315,2.557,11.659,0.047C537.28,765.671,629.786,712.406,722.383,659.3c4.972-2.852,6.68-5.989,6.671-11.665
		c-0.171-106.258-0.166-212.516-0.006-318.774c0.008-5.251-1.626-8.056-6.186-10.673
		c-92.765-53.228-185.449-106.599-278.049-160.115c-4.365-2.523-7.401-2.347-11.648,0.107
		c-92.61,53.5-185.292,106.876-278.049,160.121c-4.331,2.486-5.948,5.171-5.941,10.182c0.146,101.908,0.109,203.816,0.109,305.725
		c0,59.436,0,118.872,0,178.308c0,2.663,0,5.325,0,9.218c-2.709-1.427-4.475-2.285-6.173-3.262
		c-42.133-24.253-84.216-48.593-126.449-72.67c-4.256-2.427-5.442-5.121-5.439-9.787c0.118-159.491,0.123-318.981-0.018-478.472
		c-0.004-5.007,1.571-7.685,5.88-10.162C155.548,167.798,293.947,88.104,432.271,8.28c4.539-2.62,7.781-2.601,12.308,0.012
		c138.326,79.823,276.725,159.519,415.19,239.101c4.326,2.486,5.861,5.187,5.857,10.176c-0.137,159.49-0.133,318.981-0.013,478.472
		c0.003,4.681-1.226,7.339-5.461,9.772c-138.831,79.775-277.583,159.686-416.282,239.69c-3.859,2.226-6.703,2.467-10.671,0.171
		c-63.207-36.573-126.501-72.995-189.811-109.388c-3.219-1.851-5.412-3.552-5.397-7.951c0.173-52.405,0.112-104.811,0.122-157.217
		C238.113,710.093,238.23,709.071,238.37,706.807z"/>
	<path fill="#FFFFFF" d="M638.288,373.221c-66.503,37.867-132.01,75.167-198.219,112.867c0-76.07,0-151.066,0-227.015
		C506.259,297.19,571.789,334.926,638.288,373.221z"/>
	<path fill="#FFFFFF" d="M440.08,491.793c65.728,37.823,130.568,75.133,196.55,113.102c-65.855,37.931-130.87,75.378-196.55,113.207
		C440.08,642.376,440.08,567.59,440.08,491.793z"/>
	<path fill="#FFFFFF" d="M441.851,488.944c65.797-37.468,130.742-74.45,196.402-111.841c0,75.145,0,149.345,0,224.839
		C572.682,564.216,507.644,526.797,441.851,488.944z"/>
	<path fill="#FFFFFF" d="M240.293,372.962c65.568-37.758,130.194-74.974,195.549-112.609c0,75.345,0,149.71,0,225.121
		C370.506,447.882,305.863,410.688,240.293,372.962z"/>
	<path fill="#FFFFFF" d="M435.735,716.76c-65.319-37.614-130.104-74.921-195.861-112.788
		c65.533-37.321,130.285-74.198,195.861-111.544C435.735,567.557,435.735,641.673,435.735,716.76z"/>
	<path fill="#FFFFFF" d="M239.691,600.209c0-74.94,0-148.763,0-223.716c65.308,37.575,129.922,74.75,195.404,112.426
		C369.874,526.065,305.287,562.85,239.691,600.209z"/>
</g>
</svg>
